<svg xmlns="http://www.w3.org/2000/svg" xmlns:xlink="http://www.w3.org/1999/xlink" width="285" zoomAndPan="magnify" viewBox="0 0 213.75 74.999997" height="100" preserveAspectRatio="xMidYMid meet" version="1.0"><defs><g/><clipPath id="6d697e136f"><path d="M 16 12.65625 L 64.425781 12.65625 L 64.425781 55 L 16 55 Z M 16 12.65625 " clip-rule="nonzero"/></clipPath><clipPath id="de341b0646"><path d="M 10 13 L 64.425781 13 L 64.425781 62 L 10 62 Z M 10 13 " clip-rule="nonzero"/></clipPath></defs><g clip-path="url(#6d697e136f)"><path fill="#644c74" d="M 55.6875 50.464844 L 50.742188 22.59375 C 50.527344 20.304688 49.523438 19.375 47.871094 19.589844 L 45.9375 19.734375 C 45.289062 17.949219 44.144531 16.445312 42.710938 15.160156 C 40.703125 13.585938 38.125 12.65625 35.398438 12.800781 C 32.53125 13.015625 30.09375 14.230469 28.300781 16.015625 C 26.941406 17.519531 25.9375 19.308594 25.578125 21.304688 L 24 21.449219 C 21.632812 21.449219 20.558594 22.734375 20.84375 25.378906 L 20.773438 35.027344 C 18.335938 31.527344 16.832031 27.882812 16.328125 24.453125 C 16.042969 34.386719 26.078125 49.398438 37.121094 47.609375 C 39.128906 47.253906 40.203125 46.039062 40.203125 44.390625 C 40.203125 42.460938 38.914062 41.316406 35.972656 40.101562 C 31.886719 38.386719 29.449219 35.816406 29.449219 32.382812 C 29.449219 28.023438 32.816406 24.664062 38.625 24.664062 C 41.132812 24.664062 43.070312 25.238281 44.359375 25.878906 L 43.285156 30.027344 C 42.351562 29.597656 40.703125 28.957031 38.550781 28.957031 C 35.828125 28.957031 34.609375 30.386719 34.609375 31.8125 C 34.609375 33.742188 35.972656 34.601562 39.199219 36.101562 C 43.425781 38.03125 45.363281 40.460938 45.363281 43.960938 C 45.363281 47.824219 42.855469 50.894531 38.339844 51.683594 C 41.132812 52.824219 44.074219 53.683594 46.941406 53.972656 C 48.015625 54.039062 49.089844 54.113281 50.167969 54.039062 C 55.328125 53.972656 59.632812 52.183594 62.210938 48.683594 C 63.929688 46.179688 64.648438 43.175781 64.363281 39.890625 C 64.148438 42.105469 63.433594 44.175781 62.210938 45.964844 C 60.636719 48.109375 58.339844 49.609375 55.6875 50.464844 Z M 46.367188 22.308594 C 46.367188 21.808594 45.9375 21.449219 45.433594 21.449219 C 44.933594 21.449219 44.574219 21.808594 44.574219 22.308594 C 44.574219 22.808594 44.933594 23.167969 45.433594 23.167969 C 45.9375 23.167969 46.367188 22.808594 46.367188 22.308594 Z M 27.082031 23.59375 C 27.082031 23.09375 26.652344 22.734375 26.152344 22.734375 C 25.648438 22.734375 25.289062 23.09375 25.289062 23.59375 C 25.289062 24.09375 25.648438 24.523438 26.152344 24.523438 C 26.652344 24.523438 27.082031 24.09375 27.082031 23.59375 Z M 44.429688 19.878906 L 27.082031 21.164062 C 27.511719 19.664062 28.300781 18.234375 29.375 17.160156 C 30.953125 15.515625 33.03125 14.441406 35.472656 14.300781 C 37.835938 14.160156 40.058594 14.945312 41.777344 16.445312 C 42.925781 17.304688 43.859375 18.519531 44.429688 19.878906 Z M 44.429688 19.878906 " fill-opacity="1" fill-rule="evenodd"/></g><g clip-path="url(#de341b0646)"><path fill="#644c74" d="M 62.714844 51.894531 C 56.761719 60.328125 41.347656 59.613281 28.371094 50.324219 C 15.46875 41.105469 9.800781 26.808594 15.898438 18.449219 C 17.761719 15.730469 20.558594 14.015625 23.925781 13.160156 C 19.265625 13.726562 15.394531 15.730469 12.886719 19.164062 C 7.511719 26.667969 11.023438 38.746094 20.699219 48.109375 L 20.628906 57.972656 C 20.558594 61.117188 21.992188 62.332031 24.933594 61.691406 L 38.410156 58.832031 C 48.230469 61.976562 57.695312 60.476562 62.140625 54.257812 C 63.359375 52.542969 64.074219 50.613281 64.433594 48.535156 C 64.003906 49.753906 63.503906 50.894531 62.714844 51.894531 Z M 62.714844 51.894531 " fill-opacity="1" fill-rule="evenodd"/></g><path stroke-linecap="butt" transform="matrix(0, 0.749124, -0.749124, 0, 76.336154, 12.66186)" fill="none" stroke-linejoin="miter" d="M -0.00227431 1.001459 L 66.319999 1.001459 " stroke="#644c74" stroke-width="2" stroke-opacity="1" stroke-miterlimit="4"/><g fill="#644c74" fill-opacity="1"><g transform="translate(86.523798, 47.815337)"><g><path d="M 14.515625 -18.109375 L 14.515625 -15.109375 L 9.296875 -15.109375 L 9.296875 0 L 5.71875 0 L 5.71875 -15.109375 L 0.5 -15.109375 L 0.5 -18.109375 Z M 14.515625 -18.109375 "/></g></g></g><g fill="#644c74" fill-opacity="1"><g transform="translate(101.534645, 47.815337)"><g><path d="M 1.96875 0 L 1.96875 -19.15625 L 5.40625 -19.15625 L 5.40625 -11.875 L 5.65625 -11.828125 C 6.113281 -12.503906 6.671875 -13.019531 7.328125 -13.375 C 7.992188 -13.738281 8.789062 -13.921875 9.71875 -13.921875 C 12.738281 -13.921875 14.25 -12.210938 14.25 -8.796875 L 14.25 0 L 10.8125 0 L 10.8125 -8.359375 C 10.8125 -9.296875 10.625 -9.972656 10.25 -10.390625 C 9.882812 -10.816406 9.3125 -11.03125 8.53125 -11.03125 C 7.570312 -11.03125 6.8125 -10.707031 6.25 -10.0625 C 5.6875 -9.425781 5.40625 -8.429688 5.40625 -7.078125 L 5.40625 0 Z M 1.96875 0 "/></g></g></g><g fill="#644c74" fill-opacity="1"><g transform="translate(117.536307, 47.815337)"><g><path d="M 13.5 -6.0625 L 4.71875 -6.0625 C 4.820312 -4.875 5.160156 -4.007812 5.734375 -3.46875 C 6.316406 -2.925781 7.109375 -2.65625 8.109375 -2.65625 C 8.890625 -2.65625 9.523438 -2.800781 10.015625 -3.09375 C 10.503906 -3.382812 10.894531 -3.828125 11.1875 -4.421875 L 11.453125 -4.421875 L 13.734375 -2.96875 C 13.285156 -2.007812 12.609375 -1.226562 11.703125 -0.625 C 10.804688 -0.03125 9.609375 0.265625 8.109375 0.265625 C 6.691406 0.265625 5.46875 0 4.4375 -0.53125 C 3.414062 -1.070312 2.625 -1.875 2.0625 -2.9375 C 1.507812 -4 1.234375 -5.296875 1.234375 -6.828125 C 1.234375 -8.378906 1.523438 -9.6875 2.109375 -10.75 C 2.691406 -11.820312 3.484375 -12.617188 4.484375 -13.140625 C 5.484375 -13.660156 6.609375 -13.921875 7.859375 -13.921875 C 9.785156 -13.921875 11.265625 -13.410156 12.296875 -12.390625 C 13.328125 -11.367188 13.84375 -9.863281 13.84375 -7.875 C 13.84375 -7.15625 13.816406 -6.597656 13.765625 -6.203125 Z M 10.5625 -8.28125 C 10.519531 -9.320312 10.273438 -10.078125 9.828125 -10.546875 C 9.378906 -11.023438 8.722656 -11.265625 7.859375 -11.265625 C 6.117188 -11.265625 5.097656 -10.269531 4.796875 -8.28125 Z M 10.5625 -8.28125 "/></g></g></g><g fill="#644c74" fill-opacity="1"><g transform="translate(132.386152, 47.815337)"><g/></g></g><g fill="#644c74" fill-opacity="1"><g transform="translate(138.368203, 47.815337)"><g><path d="M 8.03125 0.265625 C 6.769531 0.265625 5.648438 0.109375 4.671875 -0.203125 C 3.691406 -0.515625 2.875 -0.921875 2.21875 -1.421875 C 1.570312 -1.929688 1.078125 -2.484375 0.734375 -3.078125 L 2.703125 -5.484375 L 3.015625 -5.484375 C 3.554688 -4.679688 4.242188 -4.039062 5.078125 -3.5625 C 5.921875 -3.082031 6.90625 -2.84375 8.03125 -2.84375 C 8.988281 -2.84375 9.707031 -3.039062 10.1875 -3.4375 C 10.675781 -3.84375 10.921875 -4.398438 10.921875 -5.109375 C 10.921875 -5.546875 10.84375 -5.90625 10.6875 -6.1875 C 10.53125 -6.476562 10.269531 -6.726562 9.90625 -6.9375 C 9.539062 -7.144531 9.050781 -7.320312 8.4375 -7.46875 L 6.109375 -8 C 4.484375 -8.375 3.269531 -8.992188 2.46875 -9.859375 C 1.675781 -10.722656 1.28125 -11.84375 1.28125 -13.21875 C 1.28125 -14.238281 1.535156 -15.140625 2.046875 -15.921875 C 2.554688 -16.703125 3.300781 -17.304688 4.28125 -17.734375 C 5.257812 -18.160156 6.429688 -18.375 7.796875 -18.375 C 9.191406 -18.375 10.382812 -18.1875 11.375 -17.8125 C 12.375 -17.445312 13.21875 -16.882812 13.90625 -16.125 L 12.125 -13.703125 L 11.8125 -13.703125 C 11.300781 -14.242188 10.710938 -14.644531 10.046875 -14.90625 C 9.390625 -15.175781 8.640625 -15.3125 7.796875 -15.3125 C 6.804688 -15.3125 6.054688 -15.140625 5.546875 -14.796875 C 5.035156 -14.453125 4.78125 -13.972656 4.78125 -13.359375 C 4.78125 -12.785156 4.957031 -12.328125 5.3125 -11.984375 C 5.675781 -11.648438 6.300781 -11.390625 7.1875 -11.203125 L 9.5625 -10.703125 C 11.320312 -10.328125 12.597656 -9.695312 13.390625 -8.8125 C 14.179688 -7.925781 14.578125 -6.769531 14.578125 -5.34375 C 14.578125 -4.207031 14.332031 -3.21875 13.84375 -2.375 C 13.363281 -1.539062 12.628906 -0.890625 11.640625 -0.421875 C 10.660156 0.0351562 9.457031 0.265625 8.03125 0.265625 Z M 8.03125 0.265625 "/></g></g></g><g fill="#644c74" fill-opacity="1"><g transform="translate(153.923999, 47.815337)"><g><path d="M 9.421875 -3.265625 L 10.328125 -0.71875 C 9.953125 -0.414062 9.484375 -0.175781 8.921875 0 C 8.359375 0.175781 7.722656 0.265625 7.015625 0.265625 C 5.535156 0.265625 4.410156 -0.132812 3.640625 -0.9375 C 2.867188 -1.75 2.484375 -2.921875 2.484375 -4.453125 L 2.484375 -10.953125 L 0.40625 -10.953125 L 0.40625 -13.671875 L 2.484375 -13.671875 L 2.484375 -16.34375 L 5.921875 -16.90625 L 5.921875 -13.671875 L 9.796875 -13.671875 L 9.796875 -10.953125 L 5.921875 -10.953125 L 5.921875 -4.703125 C 5.921875 -4.023438 6.0625 -3.53125 6.34375 -3.21875 C 6.625 -2.914062 7.035156 -2.765625 7.578125 -2.765625 C 8.179688 -2.765625 8.710938 -2.929688 9.171875 -3.265625 Z M 9.421875 -3.265625 "/></g></g></g><g fill="#644c74" fill-opacity="1"><g transform="translate(164.53811, 47.815337)"><g><path d="M 7.9375 0.265625 C 6.601562 0.265625 5.429688 -0.0078125 4.421875 -0.5625 C 3.410156 -1.113281 2.625 -1.921875 2.0625 -2.984375 C 1.507812 -4.046875 1.234375 -5.328125 1.234375 -6.828125 C 1.234375 -8.328125 1.507812 -9.609375 2.0625 -10.671875 C 2.625 -11.742188 3.410156 -12.550781 4.421875 -13.09375 C 5.429688 -13.644531 6.601562 -13.921875 7.9375 -13.921875 C 9.28125 -13.921875 10.457031 -13.644531 11.46875 -13.09375 C 12.476562 -12.550781 13.265625 -11.742188 13.828125 -10.671875 C 14.390625 -9.609375 14.671875 -8.328125 14.671875 -6.828125 C 14.671875 -5.328125 14.390625 -4.046875 13.828125 -2.984375 C 13.265625 -1.921875 12.476562 -1.113281 11.46875 -0.5625 C 10.457031 -0.0078125 9.28125 0.265625 7.9375 0.265625 Z M 7.9375 -2.65625 C 10.0625 -2.65625 11.125 -4.046875 11.125 -6.828125 C 11.125 -8.273438 10.847656 -9.332031 10.296875 -10 C 9.753906 -10.675781 8.96875 -11.015625 7.9375 -11.015625 C 5.820312 -11.015625 4.765625 -9.617188 4.765625 -6.828125 C 4.765625 -4.046875 5.820312 -2.65625 7.9375 -2.65625 Z M 7.9375 -2.65625 "/></g></g></g><g fill="#644c74" fill-opacity="1"><g transform="translate(180.41592, 47.815337)"><g><path d="M 1.96875 0 L 1.96875 -13.671875 L 5.296875 -13.671875 L 5.296875 -11.640625 L 5.5625 -11.578125 C 5.894531 -12.335938 6.328125 -12.894531 6.859375 -13.25 C 7.398438 -13.613281 8.054688 -13.796875 8.828125 -13.796875 C 9.597656 -13.796875 10.1875 -13.660156 10.59375 -13.390625 L 10.015625 -10.4375 L 9.75 -10.390625 C 9.53125 -10.472656 9.316406 -10.535156 9.109375 -10.578125 C 8.898438 -10.617188 8.644531 -10.640625 8.34375 -10.640625 C 7.382812 -10.640625 6.65625 -10.300781 6.15625 -9.625 C 5.65625 -8.957031 5.40625 -7.878906 5.40625 -6.390625 L 5.40625 0 Z M 1.96875 0 "/></g></g></g><g fill="#644c74" fill-opacity="1"><g transform="translate(191.129113, 47.815337)"><g><path d="M 13.5 -6.0625 L 4.71875 -6.0625 C 4.820312 -4.875 5.160156 -4.007812 5.734375 -3.46875 C 6.316406 -2.925781 7.109375 -2.65625 8.109375 -2.65625 C 8.890625 -2.65625 9.523438 -2.800781 10.015625 -3.09375 C 10.503906 -3.382812 10.894531 -3.828125 11.1875 -4.421875 L 11.453125 -4.421875 L 13.734375 -2.96875 C 13.285156 -2.007812 12.609375 -1.226562 11.703125 -0.625 C 10.804688 -0.03125 9.609375 0.265625 8.109375 0.265625 C 6.691406 0.265625 5.46875 0 4.4375 -0.53125 C 3.414062 -1.070312 2.625 -1.875 2.0625 -2.9375 C 1.507812 -4 1.234375 -5.296875 1.234375 -6.828125 C 1.234375 -8.378906 1.523438 -9.6875 2.109375 -10.75 C 2.691406 -11.820312 3.484375 -12.617188 4.484375 -13.140625 C 5.484375 -13.660156 6.609375 -13.921875 7.859375 -13.921875 C 9.785156 -13.921875 11.265625 -13.410156 12.296875 -12.390625 C 13.328125 -11.367188 13.84375 -9.863281 13.84375 -7.875 C 13.84375 -7.15625 13.816406 -6.597656 13.765625 -6.203125 Z M 10.5625 -8.28125 C 10.519531 -9.320312 10.273438 -10.078125 9.828125 -10.546875 C 9.378906 -11.023438 8.722656 -11.265625 7.859375 -11.265625 C 6.117188 -11.265625 5.097656 -10.269531 4.796875 -8.28125 Z M 10.5625 -8.28125 "/></g></g></g></svg>