<svg xmlns="http://www.w3.org/2000/svg" xmlns:xlink="http://www.w3.org/1999/xlink" width="100" zoomAndPan="magnify" viewBox="0 0 75 74.999997" height="100" preserveAspectRatio="xMidYMid meet" version="1.0"><defs><clipPath id="ac1b7864fb"><path d="M 10 5.558594 L 74 5.558594 L 74 60 L 10 60 Z M 10 5.558594 " clip-rule="nonzero"/></clipPath><clipPath id="5e1b653e20"><path d="M 3 6 L 74 6 L 74 70.808594 L 3 70.808594 Z M 3 6 " clip-rule="nonzero"/></clipPath><clipPath id="eacf5eb7b0"><path d="M 1.808594 3.488281 L 7.5 3.488281 L 7.5 7.5 L 1.808594 7.5 Z M 1.808594 3.488281 " clip-rule="nonzero"/></clipPath><clipPath id="bb73836406"><path d="M 3.816406 3.488281 L 5.492188 3.488281 C 6.027344 3.488281 6.535156 3.699219 6.914062 4.074219 C 7.289062 4.449219 7.5 4.960938 7.5 5.492188 C 7.5 6.027344 7.289062 6.535156 6.914062 6.914062 C 6.535156 7.289062 6.027344 7.5 5.492188 7.5 L 3.816406 7.5 C 3.285156 7.5 2.773438 7.289062 2.398438 6.914062 C 2.019531 6.535156 1.808594 6.027344 1.808594 5.492188 C 1.808594 4.960938 2.019531 4.449219 2.398438 4.074219 C 2.773438 3.699219 3.285156 3.488281 3.816406 3.488281 Z M 3.816406 3.488281 " clip-rule="nonzero"/></clipPath></defs><g clip-path="url(#ac1b7864fb)"><path fill="#644c74" d="M 62.476562 55.164062 L 55.988281 18.59375 C 55.703125 15.59375 54.386719 14.371094 52.222656 14.65625 L 49.683594 14.839844 C 48.832031 12.5 47.332031 10.527344 45.445312 8.839844 C 42.816406 6.777344 39.429688 5.558594 35.855469 5.746094 C 32.089844 6.027344 28.894531 7.621094 26.542969 9.964844 C 24.757812 11.9375 23.4375 14.28125 22.96875 16.902344 L 20.898438 17.09375 C 17.792969 17.09375 16.382812 18.78125 16.757812 22.25 L 16.664062 34.910156 C 13.464844 30.316406 11.492188 25.535156 10.832031 21.03125 C 10.457031 34.066406 23.625 53.761719 38.113281 51.417969 C 40.746094 50.949219 42.15625 49.355469 42.15625 47.195312 C 42.15625 44.664062 40.464844 43.160156 36.605469 41.566406 C 31.246094 39.320312 28.046875 35.945312 28.046875 31.441406 C 28.046875 25.71875 32.46875 21.3125 40.089844 21.3125 C 43.378906 21.3125 45.917969 22.0625 47.613281 22.90625 L 46.203125 28.347656 C 44.976562 27.785156 42.816406 26.941406 39.992188 26.941406 C 36.417969 26.941406 34.820312 28.816406 34.820312 30.691406 C 34.820312 33.222656 36.605469 34.351562 40.839844 36.316406 C 46.386719 38.847656 48.929688 42.035156 48.929688 46.628906 C 48.929688 51.699219 45.636719 55.730469 39.714844 56.765625 C 43.378906 58.261719 47.238281 59.386719 51 59.765625 C 52.410156 59.855469 53.820312 59.953125 55.230469 59.855469 C 62.003906 59.765625 67.648438 57.421875 71.035156 52.824219 C 73.292969 49.542969 74.234375 45.601562 73.859375 41.289062 C 73.574219 44.195312 72.636719 46.914062 71.035156 49.257812 C 68.96875 52.074219 65.957031 54.039062 62.476562 55.164062 Z M 50.246094 18.21875 C 50.246094 17.5625 49.683594 17.09375 49.023438 17.09375 C 48.363281 17.09375 47.894531 17.5625 47.894531 18.21875 C 47.894531 18.875 48.363281 19.347656 49.023438 19.347656 C 49.683594 19.347656 50.246094 18.875 50.246094 18.21875 Z M 24.941406 19.90625 C 24.941406 19.25 24.375 18.78125 23.722656 18.78125 C 23.058594 18.78125 22.589844 19.25 22.589844 19.90625 C 22.589844 20.5625 23.058594 21.125 23.722656 21.125 C 24.375 21.125 24.941406 20.5625 24.941406 19.90625 Z M 47.707031 15.03125 L 24.941406 16.71875 C 25.507812 14.75 26.542969 12.875 27.953125 11.46875 C 30.023438 9.308594 32.75 7.902344 35.949219 7.714844 C 39.054688 7.527344 41.96875 8.558594 44.226562 10.527344 C 45.730469 11.652344 46.953125 13.246094 47.707031 15.03125 Z M 47.707031 15.03125 " fill-opacity="1" fill-rule="evenodd"/></g><g clip-path="url(#5e1b653e20)"><path fill="#644c74" d="M 71.695312 57.042969 C 63.886719 68.105469 43.660156 67.167969 26.636719 54.976562 C 9.707031 42.882812 2.269531 24.128906 10.269531 13.152344 C 12.714844 9.589844 16.382812 7.339844 20.804688 6.214844 C 14.6875 6.960938 9.609375 9.589844 6.320312 14.09375 C -0.738281 23.941406 3.871094 39.789062 16.570312 52.074219 L 16.476562 65.015625 C 16.382812 69.140625 18.265625 70.734375 22.121094 69.894531 L 39.804688 66.140625 C 52.691406 70.265625 65.109375 68.300781 70.945312 60.136719 C 72.539062 57.890625 73.480469 55.359375 73.953125 52.632812 C 73.390625 54.234375 72.730469 55.730469 71.695312 57.042969 Z M 71.695312 57.042969 " fill-opacity="1" fill-rule="evenodd"/></g><g clip-path="url(#eacf5eb7b0)"><g clip-path="url(#bb73836406)"><path fill="#ffffff" d="M 1.808594 3.488281 L 7.5 3.488281 L 7.5 7.5 L 1.808594 7.5 Z M 1.808594 3.488281 " fill-opacity="1" fill-rule="nonzero"/></g></g></svg>